<svg xmlns="http://www.w3.org/2000/svg" width="1240" height="1240"><path d="M325.5 95.56c-2.2.196-22.329.846-44.731 1.446-39.653 1.062-47.363 1.746-56.769 5.041-1.925.674-3.928 1.615-4.45 2.089-.523.475-1.605.864-2.405.864-2.986 0-21.118 13.163-27.19 19.738-9.431 10.213-17.936 24.048-20.755 33.762-2.194 7.56-3.221 27.111-4.284 81.5-1.421 72.719-1.525 134.413-.61 364.5.865 217.501.424 204.893 7.915 226.5 3.801 10.964 11.054 21.561 21.772 31.809 5.275 5.043 20.084 15.191 22.168 15.191.792 0 1.866.374 2.389.831.933.817 6.05 2.465 13.95 4.492 2.611.67 68.575 1.291 190 1.789 102.3.419 198.15 1.068 213 1.442 26.328.663 40.67-.016 56-2.654 40.125-6.903 64.067-25.249 74.092-56.774 5.173-16.266 5.399-20.358 5.594-101.38.099-41.385-.143-76.215-.539-77.4-1.601-4.786-5.035-5.262-33.39-4.625-25.439.572-26.244.652-26.989 2.684-.422 1.152-.629 35.566-.459 76.474.335 80.451.34 80.357-5.03 89.243-4.09 6.768-10.54 10.599-21.578 12.814-7.188 1.443-427.777 1.447-434.201.004-7.059-1.585-10.485-3.574-15.21-8.829-7.14-7.941-7.596-10.544-8.778-50.111-.624-20.896-1.013-141.362-.986-305.5.037-220.715.29-272.021 1.363-276.5 3.46-14.435 11.127-22.662 24.111-25.871 2.478-.613 56.695-1.215 142.5-1.582 154.943-.663 293.791.391 298.278 2.265 4.202 1.754 12.493 9.964 13.666 13.531 2.214 6.733 3.005 37.202 2.393 92.133-.653 58.547-.053 71.97 3.388 75.773 1.438 1.589 4.188 1.751 29.707 1.751 24.776 0 28.417-.201 30.595-1.692 3.317-2.27 3.707-2.966 4.331-7.723.294-2.247.154-39.41-.311-82.585-.694-64.425-1.113-79.486-2.336-84-2.11-7.793-3.382-10.716-5.078-11.669-.813-.457-3.82-4.431-6.681-8.831-18.606-28.611-34.283-40.787-59.206-45.987-6.177-1.288-21.846-1.515-106.246-1.539-86.737-.025-131.643-.461-239.5-2.329-14.025-.242-27.3-.281-29.5-.085m334 244.401c-1.1.455-4.025 1.377-6.5 2.049-2.475.672-5.625 1.584-7 2.026-1.375.442-5.2 1.574-8.5 2.515-24.772 7.064-42.864 15.135-60.527 27-6.31 4.239-12.879 8.887-14.598 10.328-1.719 1.442-5.994 4.864-9.5 7.606-3.506 2.741-6.6 5.252-6.875 5.578-.275.327-4.498 3.846-9.384 7.821-5.352 4.353-9.465 7.004-10.343 6.667-.802-.308-2.654-.825-4.116-1.15-2.79-.62-13.851-3.738-28.157-7.939a9973.02 9973.02 0 00-11.5-3.369c-2.735-.796-18.953-4.967-27.5-7.071-12.938-3.186-33.244-6.022-43.121-6.022-7.071 0-18.561 2.036-23.486 4.161-4.637 2.001-11.393 7.059-11.393 8.53 0 .744 1.125 1.864 2.5 2.491 1.375.626 2.5 1.517 2.5 1.979 0 .461.873.839 1.941.839s2.187.398 2.488.885c1.166 1.887 10.647 2.241 27.252 1.017 17.444-1.286 35.446-.495 46.605 2.048 22.035 5.02 32.742 8.54 46.712 15.358 8.928 4.356 24.128 12.622 34.194 18.595 34.791 20.641 44.994 25.981 63.808 33.392 14.365 5.659 40.136 13.122 54 15.638 3.575.648 8.075 1.576 10 2.06 6.694 1.686 30.676 5.233 52 7.691 10.923 1.26 23.812 1.69 52.25 1.744 20.762.04 37.75.398 37.75.796 0 2.839-12.822 5.775-43 9.847-13.517 1.823-19.018 2.033-43 1.638-30.697-.505-42.787-1.72-72.5-7.29-14.858-2.786-15.902-3.048-31.5-7.92-15.961-4.985-22.861-7.936-51.5-22.028-24.267-11.941-44.818-20.785-51.319-22.085-2.985-.597-3.181-.459-3.178 2.239.004 4.072 4.316 25.488 7.323 36.375 8.208 29.713 21.45 55.187 38.989 75 6.52 7.366 10.552 11.13 23.685 22.114 6.081 5.087 24.163 16.378 38 23.729 7.057 3.75 57.341 29.127 57.75 29.146.138.006.25-6.223.25-13.842 0-17.862.844-26.147 2.662-26.147.758 0 3.056 1.038 5.108 2.307 5.069 3.134 14.964 7.693 16.698 7.693.778 0 1.66.398 1.961.885.3.486 1.79 1.118 3.309 1.404 1.519.286 5.237 1.236 8.262 2.112 10.175 2.944 25.063 4.599 41.374 4.599 20.116 0 25.586-.673 57.126-7.026 3.792-.764 11.788-2.845 19.5-5.075a947.62 947.62 0 016.5-1.851c8.333-2.333 33.78-12.06 46.5-17.776 8.82-3.963 32.887-16.053 40.5-20.344 3.85-2.171 7.9-4.365 9-4.877 3.746-1.743 23.325-14.539 27.356-17.879 4.939-4.093 7.31-7.576 6.533-9.599-.323-.843-2.206-2.533-4.184-3.756-5.292-3.27-10.205-7.821-10.205-9.452 0-.785.788-1.716 1.75-2.069 2.799-1.025 20.988-14.055 30.25-21.67 10.184-8.373 28.524-26.751 36.762-36.839 6.882-8.427 19.238-25.402 19.238-26.43 0-.385.633-1.41 1.406-2.278 2.829-3.177 13.893-24.32 18.881-36.079 3.818-9.004 9.14-26.906 8.26-27.786-.314-.315-2.479.467-4.809 1.737-8.608 4.689-19.01 9.706-32.238 15.549-5.238 2.314-19.384 7.201-27 9.329-14.388 4.02-19.731 5.167-33.193 7.125-9.164 1.333-40.604 1.358-49.225.039-17.021-2.604-20.099-3.221-35.582-7.132-6.606-1.668-19.846-5.769-41.5-12.851-11.275-3.688-24.55-7.906-29.5-9.374-4.95-1.468-10.35-3.077-12-3.575-20.697-6.245-47.974-10.151-71-10.166-24.959-.016-53.64 4.401-74.586 11.486-3.623 1.226-7.11 2.054-7.75 1.84-1.767-.589-1.42-3.423 1.465-11.95 5.057-14.948 6.757-25.346 4.121-25.203-.687.037-2.15.439-3.25.893M216.044 964.75c-1.772 4.813-4.343 11.9-5.713 15.75-2.48 6.968-2.979 8.287-5.301 14-.671 1.65-1.874 5.025-2.675 7.5-.801 2.475-1.847 5.4-2.325 6.5-.478 1.1-2.071 5.375-3.538 9.5-3.083 8.665-9.02 24.899-10.971 30-.736 1.925-2.321 6.2-3.521 9.5-1.2 3.3-2.783 7.575-3.517 9.5-.733 1.925-2.528 6.875-3.989 11-1.46 4.125-3.033 8.4-3.496 9.5-2.948 7.01-6.695 18.119-6.322 18.75.768 1.302 13.994.862 15.027-.5.522-.687 1.666-3.5 2.542-6.25 2.644-8.293 9.542-27.234 10.721-29.437 1.086-2.029 1.738-2.063 39.51-2.063 24.178 0 38.632.366 39.016.987.593.96 3.091 7.631 10.094 26.956 1.882 5.194 3.983 9.8 4.668 10.235 1.436.912 13.123 1.112 13.996.239.321-.321-.537-3.584-1.907-7.25-1.369-3.667-2.85-7.792-3.29-9.167-.441-1.375-2.245-6.325-4.009-11-3.184-8.439-7.006-18.763-13.698-37-1.917-5.225-4.098-11.075-4.846-13-.748-1.925-2.929-7.775-4.846-13-1.917-5.225-5.059-13.775-6.982-19a2097.092 2097.092 0 01-6.164-17c-1.467-4.125-3.055-8.4-3.528-9.5-.472-1.1-1.846-4.812-3.053-8.25l-2.195-6.25h-26.466l-3.222 8.75m444.2 66.456l.256 75.294h99V1092.871l-41 .067c-22.55.036-41.584-.312-42.297-.774-1.038-.673-1.338-14.29-1.5-68.252L674.5 956.5l-7.256-.294-7.257-.294.257 75.294M230.4 970.761c-1.557 1.046-2.844 3.715-5.913 12.264-6.193 17.25-15.163 41.985-17.034 46.975-5.259 14.024-8.07 22.683-7.709 23.75.566 1.674 63.28 1.826 64.948.158.789-.789.585-2.522-.736-6.25-2.556-7.213-8.166-22.582-11.921-32.658a2710.48 2710.48 0 01-6.256-17c-9.578-26.354-9.837-27-10.795-27-.451 0-1.42-.22-2.152-.489-.733-.27-1.827-.157-2.432.25m118.063 29.214c-3.32.471-8.561 2.012-11.645 3.423-13.235 6.053-16.855 16.944-16.765 50.44.077 28.838 2.552 39.244 11.067 46.532 6.411 5.488 13.141 7.12 29.38 7.125 13.315.005 14.279-.132 19.704-2.796 3.137-1.541 6.857-4.241 8.265-6a595.878 595.878 0 013.636-4.503c2.577-3.127 3.395-.522 3.103 9.887-.541 19.321-2 23.296-10.247 27.917-4.245 2.379-5.237 2.499-20.461 2.486-14.709-.013-16.346-.198-20.289-2.291-4.691-2.489-7.683-6.567-8.667-11.813l-.635-3.382h-7.454c-4.1 0-7.45.338-7.443.75.028 1.802 2.998 11.749 4.361 14.611 2.894 6.075 10.122 11.432 18.127 13.435 2.2.551 6.25 1.604 9 2.34 6.597 1.766 19.407 1.558 27.5-.447a871.66 871.66 0 019.5-2.306c6.818-1.58 13.279-7.297 16.255-14.383 4.038-9.614 4.379-15.883 4.055-74.5l-.31-56-4.42-.316c-8.318-.594-8.704-.23-8.252 7.781.341 6.026.162 7.035-1.249 7.035-.905 0-2.555-1.54-3.665-3.421-2.452-4.157-6.934-7.638-12.811-9.95-5.195-2.045-20.77-2.914-29.64-1.654m128.935-.009c-6.809 1.459-11.66 4.307-14.861 8.723-4.268 5.887-5.384 5.51-5.739-1.939l-.298-6.25h-12.555v106h13.224l-.124-30.233c-.074-17.974.346-33.788 1.035-39 2.365-17.89 9.786-25.267 25.42-25.267 13.923 0 18.658 4.309 20.056 18.25l.677 6.75H518.208l-.708-8.25c-1.783-20.781-8.762-28.273-27.213-29.215-4.833-.247-10.633-.053-12.889.431m88.102.058c-24.729 3.766-30.285 15.032-29.298 59.405.388 17.425.751 21.023 2.753 27.294 2.343 7.338 7.863 15.277 10.623 15.277.782 0 1.422.338 1.422.75 0 .413 2.813 1.65 6.25 2.75 5.419 1.734 8.842 1.988 25.75 1.911 17.182-.078 20.154-.335 25-2.167 15.801-5.972 19.853-16.281 19.946-50.744.047-17.598-1.222-30.849-3.545-37-2.99-7.92-8.559-12.723-18.401-15.871-6.487-2.075-31.024-3.047-40.5-1.605m236.745-.028c-8.326 1.177-16.932 5.629-20.917 10.822-6.074 7.914-6.824 12.548-6.826 42.182-.002 27.514.497 31.838 4.64 40.181 2.456 4.944 8.177 9.556 14.858 11.977 6.681 2.421 31.558 3.628 42.5 2.062 7.872-1.126 16.899-4.879 20.201-8.399 3.517-3.748 6.529-11.658 7.929-20.821 2.616-17.118 1.209-50.518-2.54-60.288-3.105-8.092-8.73-13.096-18.09-16.092-6.446-2.063-31.702-3.045-41.755-1.624m121.157-.067c-17.715 2.834-25.401 10.675-27.881 28.439-.909 6.517-.91 41.435-.001 50.167.805 7.731 4.859 17.619 8.693 21.206 1.318 1.232 5.296 3.463 8.841 4.959 6.06 2.555 7.344 2.716 21.446 2.694 17.921-.029 21.627-1.268 28.845-9.646 2.478-2.877 4.873-4.863 5.321-4.415 1.288 1.287.321 26.753-1.149 30.275-1.582 3.793-4.866 6.97-9.517 9.208-5.141 2.473-34.065 2.443-38.631-.041-4.263-2.319-8.075-7.062-9.501-11.82l-1.185-3.955h-6.675c-3.671 0-6.907.232-7.191.516-.284.284.038 2.646.714 5.25 3.75 14.436 9.34 20.215 22.469 23.229a383 383 0 0110.654 2.634c2.835.754 7.49 1.371 10.346 1.371s7.511-.617 10.346-1.371a329.113 329.113 0 0110.654-2.601c8.406-1.878 15.148-6.748 18.242-13.178 4.726-9.818 4.888-12.458 4.563-74.35l-.305-58-6.25-.298-6.25-.297v7.547c0 8.71-1.416 9.847-5.013 4.027-2.632-4.259-6.985-7.596-12.884-9.879-5.092-1.97-21.03-2.898-28.701-1.671M349 1013.175c-4.959 1.409-9.737 5.33-11.741 9.635-1.49 3.201-1.718 7.266-1.718 30.69 0 29.361.27 31.039 5.908 36.676 6.28 6.28 25.911 7.262 38.051 1.903 5.587-2.465 11.16-8.586 13.239-14.539 2.654-7.595 2.573-40.879-.117-48.04-3.181-8.472-9.471-13.877-19.122-16.43-4.93-1.305-19.763-1.241-24.5.105m217.003.04c-5.91 1.315-9.549 4.018-12.274 9.119-2.146 4.018-2.223 5.123-2.179 31.166.04 22.749.303 27.557 1.674 30.539 4.075 8.865 10.551 11.44 28.776 11.44 19.277 0 26.191-3.158 29.142-13.309 1.907-6.559 1.914-50.827.009-57.146-1.925-6.385-6.614-10.439-13.722-11.867-6.874-1.38-25.114-1.347-31.426.058m237.997-.061c-5.746 1.32-10.555 4.963-12.747 9.656-1.5 3.21-1.726 7.27-1.739 31.19l-.014 27.5 2.5 4.416c1.5 2.649 3.936 5.156 6.088 6.264 10.187 5.246 36.326 4.719 44.312-.893 7.22-5.075 8.047-8.795 8.076-36.287.027-26.024-.853-32.051-5.384-36.901-1.489-1.594-4.481-3.456-6.65-4.138-5.085-1.598-28.6-2.149-34.442-.807m118.561.195c-5.096 1.418-10.14 6.515-11.771 11.894-1.844 6.084-1.798 50.573.059 56.733 1.672 5.546 6.822 10.574 12.443 12.148 5.861 1.641 19.23 1.608 25.208-.063 10.175-2.843 16.927-9.567 19.334-19.254 1.749-7.038 1.524-37.24-.324-43.462-2.892-9.738-9.146-15.455-20.01-18.29-5.058-1.32-19.762-1.147-24.939.294" fill="undefined" fill-rule="evenodd"/></svg>